<?xml version="1.0" encoding="UTF-8"?>
<svg version="1.1" xmlns="http://www.w3.org/2000/svg" width="512" height="512">
<path d="M0 0 C168.96 0 337.92 0 512 0 C512 168.96 512 337.92 512 512 C343.04 512 174.08 512 0 512 C0 343.04 0 174.08 0 0 Z " fill="#171717" transform="translate(0,0)"/>
<path d="M0 0 C3.63 0 7.26 0 11 0 C11 8.25 11 16.5 11 25 C21.56 25 32.12 25 43 25 C43 16.75 43 8.5 43 0 C46.63 0 50.26 0 54 0 C54 20.13 54 40.26 54 61 C50.37 61 46.74 61 43 61 C43 52.09 43 43.18 43 34 C32.44 34 21.88 34 11 34 C11 42.58 11 51.16 11 60 C7.37 60 3.74 60 0 60 C0 40.2 0 20.4 0 0 Z " fill="#FDFDFD" transform="translate(221,226)"/>
<path d="M0 0 C3.1875 2.25 3.1875 2.25 5 4 C4.65120368 7.25543229 3.97866739 8.01873107 1.4375 10.25 C0.633125 10.8275 -0.17125 11.405 -1 12 C-1.515625 11.731875 -2.03125 11.46375 -2.5625 11.1875 C-3.366875 10.795625 -4.17125 10.40375 -5 10 C-5.94875 9.46375 -6.8975 8.9275 -7.875 8.375 C-14.10123627 5.76616666 -22.24271325 5.59751048 -28.54296875 7.94921875 C-33.51199083 10.90452832 -36.93062588 14.54043953 -39.25 19.875 C-40.8559891 26.56662127 -40.07459895 31.94918927 -37 38 C-34.14817222 42.49011183 -30.9226158 44.99255029 -26 47 C-22.28334886 47.39772379 -22.28334886 47.39772379 -18.4375 47.25 C-16.51744141 47.22679687 -16.51744141 47.22679687 -14.55859375 47.203125 C-10.73407253 47.06807566 -10.73407253 47.06807566 -6 46 C-6 39.4 -6 32.8 -6 26 C-2.37 26 1.26 26 5 26 C5 34.25 5 42.5 5 51 C-6.54387653 57.59650087 -16.99534291 60.14126276 -30.23046875 57.30859375 C-38.85686603 54.46485727 -44.26842003 49.80600131 -48.95703125 42.125 C-52.81871054 34.25700924 -53.33959925 25.62479456 -51.3125 17.11328125 C-48.16412659 8.54708194 -43.34827641 3.29174817 -35.34375 -0.95703125 C-24.05405668 -5.98094478 -10.9949728 -5.72977456 0 0 Z " fill="#F8F8F8" transform="translate(399,229)"/>
<path d="M0 0 C3.125 2.25 3.125 2.25 5 4 C4.46104623 7.7726764 3.00464642 9.68212991 0 12 C-2.93042126 11.59498243 -4.95698941 10.47884177 -7.4375 8.9375 C-13.02513726 6.06505608 -18.87231841 6.31382732 -25 7 C-28.52248006 8.25494462 -28.52248006 8.25494462 -31 10 C-31.99 10.33 -32.98 10.66 -34 11 C-35.10168984 12.69769234 -35.10168984 12.69769234 -36 15 C-36.53625 16.051875 -37.0725 17.10375 -37.625 18.1875 C-40.02332999 23.91412466 -39.72931893 29.53635926 -37.625 35.3125 C-37.09706341 36.54762608 -36.55708308 37.7777431 -36 39 C-35.690625 39.78375 -35.38125 40.5675 -35.0625 41.375 C-33.65751014 43.52380802 -32.37018053 44.05192779 -30 45 C-29.26007813 45.3403125 -28.52015625 45.680625 -27.7578125 46.03125 C-22.08162937 48.02515002 -15.20035627 48.05190005 -9.48046875 46.171875 C-6.49275809 44.68633426 -3.7735144 42.8490096 -1 41 C0.03531726 41.90027588 1.05294165 42.82093035 2.0625 43.75 C2.63097656 44.26046875 3.19945312 44.7709375 3.78515625 45.296875 C5 47 5 47 4.91015625 49.0390625 C3.77322823 51.48858123 2.6808852 52.24503009 0.375 53.625 C-0.27726562 54.02976562 -0.92953125 54.43453125 -1.6015625 54.8515625 C-10.27577571 59.00501312 -20.64900613 59.39006026 -29.98046875 57.34765625 C-38.08294203 54.42071629 -43.99150124 49.46773759 -47.9375 41.8125 C-51.56809448 33.99749154 -52.35789285 25.61779671 -50.31640625 17.171875 C-47.06937484 8.38737509 -41.52373383 1.99971341 -33 -2 C-22.31736673 -5.6418068 -9.93170421 -5.75300283 0 0 Z " fill="#F9F9F9" transform="translate(204,229)"/>
<path d="M0 0 C3.3 0 6.6 0 10 0 C10.33 1.32 10.66 2.64 11 4 C11.845625 3.34 12.69125 2.68 13.5625 2 C19.37712163 -1.34817352 26.53341105 -0.77431648 33 0 C38.29194494 2.15574479 40.70800256 4.48526066 44 9 C45.21077701 12.63233102 45.12444164 15.95121987 45.09765625 19.73046875 C45.0962413 20.48088943 45.09482635 21.23131012 45.09336853 22.00447083 C45.0877756 24.3988546 45.07522444 26.79314453 45.0625 29.1875 C45.05748408 30.81184761 45.05292134 32.43619668 45.04882812 34.06054688 C45.03780848 38.04040069 45.02054873 42.02018444 45 46 C41.7 46 38.4 46 35 46 C34.98541748 45.18321777 34.97083496 44.36643555 34.95581055 43.52490234 C34.88113077 39.8078024 34.78453388 36.09158081 34.6875 32.375 C34.65366211 30.44720703 34.65366211 30.44720703 34.61914062 28.48046875 C34.58369141 27.23652344 34.54824219 25.99257813 34.51171875 24.7109375 C34.47244263 22.99849854 34.47244263 22.99849854 34.43237305 21.25146484 C33.94440978 17.58195907 32.92681855 15.14894605 31 12 C26.95243039 9.30162026 23.75294418 9.34302307 19 10 C15.56429234 11.68662013 13.60307935 12.80643249 11.86572266 16.24487305 C10.87692578 19.39167866 10.67966397 22.0984837 10.5859375 25.39453125 C10.52792969 27.19760742 10.52792969 27.19760742 10.46875 29.03710938 C10.4378125 30.28298828 10.406875 31.52886719 10.375 32.8125 C10.31699219 34.71032227 10.31699219 34.71032227 10.2578125 36.64648438 C10.16369343 39.76417851 10.07805639 42.88186914 10 46 C6.7 46 3.4 46 0 46 C0 30.82 0 15.64 0 0 Z " fill="#FDFDFD" transform="translate(291,240)"/>
<path d="M0 0 C4.2502116 -0.85442398 7.77714791 -1.08290938 12 0 C16.28248579 3.4365127 19.27062587 8.30209496 22 13 C22 13.66 22 14.32 22 15 C22.66 15 23.32 15 24 15 C24.26039062 14.45859375 24.52078125 13.9171875 24.7890625 13.359375 C27.33013895 8.40837444 29.87207483 3.80000588 34 0 C38.15760081 -0.93012341 41.81689189 -0.69021284 46 0 C41.11423491 7.68614264 35.60446639 14.83381472 30 22 C31.37780733 24.96806287 32.98491476 27.43262766 35.00390625 30.00390625 C35.57947266 30.74447266 36.15503906 31.48503906 36.74804688 32.24804688 C37.96106595 33.79533171 39.17461067 35.3422046 40.38867188 36.88867188 C41.25008789 37.99758789 41.25008789 37.99758789 42.12890625 39.12890625 C42.65556885 39.79994385 43.18223145 40.47098145 43.72485352 41.16235352 C45 43 45 43 46 46 C41.7497884 46.85442398 38.22285209 47.08290938 34 46 C29.71751421 42.5634873 26.72937413 37.69790504 24 33 C24 32.34 24 31.68 24 31 C21.36027226 33.39975249 19.32109957 35.44063772 17.53125 38.55859375 C15.86686709 41.43454951 14.42568664 43.71776795 12 46 C7.87260588 46.85340856 4.15089946 46.61343342 0 46 C1.33244355 43.1591298 2.83929467 40.73597145 4.75 38.25 C5.2759375 37.5590625 5.801875 36.868125 6.34375 36.15625 C8 34 8 34 9.65625 31.84375 C10.1821875 31.1528125 10.708125 30.461875 11.25 29.75 C11.72953125 29.12609375 12.2090625 28.5021875 12.703125 27.859375 C14.01667611 25.97609088 15.02616279 24.07629443 16 22 C15.58637207 21.47567383 15.17274414 20.95134766 14.74658203 20.41113281 C12.86906879 18.0269388 10.99699259 15.63853066 9.125 13.25 C8.47402344 12.425 7.82304688 11.6 7.15234375 10.75 C6.52714844 9.95078125 5.90195313 9.1515625 5.2578125 8.328125 C4.6817627 7.5949707 4.10571289 6.86181641 3.51220703 6.10644531 C2.09548675 4.13300931 1.01415125 2.20240573 0 0 Z " fill="#F9F9F9" transform="translate(102,240)"/>
<path d="M0 0 C6.11575125 0.00671323 6.11575125 0.00671323 8.72265625 1.77734375 C10.0625 3.4375 10.0625 3.4375 11.75 6.4375 C11.42 7.0975 11.09 7.7575 10.75 8.4375 C10.316875 7.6125 9.88375 6.7875 9.4375 5.9375 C6.2249077 2.94904205 5.2500531 3.09765088 1 3.125 C-0.75126074 3.20522791 -2.50215533 3.30189136 -4.25 3.4375 C-3.26 5.0875 -2.27 6.7375 -1.25 8.4375 C-4.24324263 7.3399777 -5.09610901 6.76067108 -6.5 3.8125 C-6.7475 3.02875 -6.995 2.245 -7.25 1.4375 C-5.3825158 -0.4299842 -2.5076736 0.09277268 0 0 Z " fill="#101010" transform="translate(107.25,237.5625)"/>
</svg>
